<svg xmlns="http://www.w3.org/2000/svg" viewBox="0 0 162.13 162.13"><defs><style>.cls-1{fill:#b3bfbd;}.cls-2{fill:none;stroke:#b3bfbd;stroke-miterlimit:10;stroke-width:6px;}</style></defs><title>scan</title><g id="Слой_2" data-name="Слой 2"><g id="Слой_1-2" data-name="Слой 1"><path class="cls-1" d="M0,153.67a8.46,8.46,0,0,0,8.46,8.46H65a8.46,8.46,0,0,0,0-16.92H16.92V97.14A8.46,8.46,0,0,0,0,97.14Z"/><path class="cls-1" d="M97.14,162.13h56.53a8.45,8.45,0,0,0,8.46-8.46V97.14a8.46,8.46,0,1,0-16.92,0v48.08H97.14a8.46,8.46,0,1,0,0,16.92Z"/><path class="cls-1" d="M65,0H8.46A8.46,8.46,0,0,0,0,8.46V65a8.46,8.46,0,1,0,16.92,0V16.92H65A8.46,8.46,0,0,0,65,0Z"/><path class="cls-1" d="M162.13,8.46A8.46,8.46,0,0,0,153.67,0H97.14a8.46,8.46,0,1,0,0,16.92h48.07V65a8.46,8.46,0,1,0,16.92,0Z"/><path class="cls-2" d="M81.07,66.07a15,15,0,1,0,15,15A15,15,0,0,0,81.07,66.07Z"/></g></g></svg>