<svg xmlns="http://www.w3.org/2000/svg" xmlns:xlink="http://www.w3.org/1999/xlink" viewBox="0 0 141 141"><defs><style>.cls-1,.cls-2{fill:none;}.cls-2{stroke:#b3bfbd;stroke-miterlimit:10;stroke-width:6px;}.cls-3{clip-path:url(#clip-path);}.cls-4{fill:#b3bfbd;}</style><clipPath id="clip-path"><rect class="cls-1" x="41.28" y="28.42" width="58.44" height="84.15"/></clipPath></defs><title>send</title><g id="Слой_2" data-name="Слой 2"><g id="Слой_1-2" data-name="Слой 1"><circle class="cls-2" cx="70.5" cy="70.5" r="67.5"/><g class="cls-3"><path class="cls-4" d="M42.14,57.5a2.9,2.9,0,1,0,4.08,4.12l20.9-20.9v69A2.88,2.88,0,0,0,70,112.58a2.92,2.92,0,0,0,2.93-2.89v-69L93.8,61.62a3,3,0,0,0,4.12,0,2.89,2.89,0,0,0,0-4.12L72.07,31.65a2.83,2.83,0,0,0-4.07,0Zm0,0"/></g></g></g></svg>