<svg xmlns="http://www.w3.org/2000/svg" xmlns:xlink="http://www.w3.org/1999/xlink" viewBox="0 0 141 141"><defs><style>.cls-1,.cls-2{fill:none;}.cls-2{stroke:#ea001c;stroke-miterlimit:10;stroke-width:6px;}.cls-3{clip-path:url(#clip-path);}.cls-4{fill:#ea001c;}</style><clipPath id="clip-path"><rect class="cls-1" x="28.42" y="41.28" width="84.15" height="58.44" transform="translate(-29.2 70.5) rotate(-45)"/></clipPath></defs><title>yhod</title><g id="Слой_2" data-name="Слой 2"><g id="Слой_1-2" data-name="Слой 1"><circle class="cls-2" cx="70.5" cy="70.5" r="67.5"/><g class="cls-3"><path class="cls-4" d="M81.36,99.75a2.9,2.9,0,1,0,0-5.8H51.83l48.77-48.77a2.88,2.88,0,0,0,0-4.09,2.92,2.92,0,0,0-4.12,0L47.71,89.83l0-29.52a3,3,0,0,0-2.92-2.92,2.89,2.89,0,0,0-2.92,2.92V96.86a2.83,2.83,0,0,0,2.88,2.88Zm0,0"/></g></g></g></svg>