<svg xmlns="http://www.w3.org/2000/svg" xmlns:xlink="http://www.w3.org/1999/xlink" viewBox="0 0 150.71 129.52"><defs><style>.cls-1{fill:none;}.cls-2{clip-path:url(#clip-path);}.cls-3{fill:#fff;}</style><clipPath id="clip-path"><rect class="cls-1" width="151.4" height="129.9"/></clipPath></defs><title>walletsHover</title><g id="Слой_2" data-name="Слой 2"><g id="Слой_1-2" data-name="Слой 1"><g class="cls-2"><path class="cls-3" d="M125.08,129.52h-107A18.14,18.14,0,0,1,0,111.41V37A18.14,18.14,0,0,1,18.12,18.87H48.63L99.47.14a2.25,2.25,0,0,1,2.91,1.4l2.16,6.53,13.34-4.23a2.25,2.25,0,0,1,2.85,1.57l3.49,13.45h.86A18.14,18.14,0,0,1,143.2,37V55.62a10.3,10.3,0,0,1,7.51,9.9V82.87a10.3,10.3,0,0,1-7.51,9.9v18.63a18.14,18.14,0,0,1-18.12,18.12ZM18.12,23.36A13.65,13.65,0,0,0,4.49,37v74.42A13.65,13.65,0,0,0,18.12,125h107a13.65,13.65,0,0,0,13.63-13.64V93.15h-40a9.77,9.77,0,0,1-9.75-9.75V65a9.76,9.76,0,0,1,9.75-9.75h40V37a13.65,13.65,0,0,0-13.63-13.63h-107ZM93.4,82.87a5.8,5.8,0,0,0,5.8,5.8h41.23a5.8,5.8,0,0,0,5.79-5.8V65.52a5.8,5.8,0,0,0-5.79-5.79H99.2a5.8,5.8,0,0,0-5.8,5.79Zm14.71-64h11.47l-2.6-10-11,3.5Zm-46.51,0h41.79L101,11.62l0-.06h0l-2.12-6.4ZM106.5,82.69A8.49,8.49,0,1,1,115,74.2a8.5,8.5,0,0,1-8.49,8.49Zm0-12.5a4,4,0,1,0,4,4,4,4,0,0,0-4-4Zm0,0"/></g></g></g></svg>