<svg width="26" height="26" viewBox="0 0 26 26" fill="none" xmlns="http://www.w3.org/2000/svg">
<path d="M4.33335 8.16666C3.41783 8.16666 2.66669 7.41552 2.66669 6.49999C2.66669 5.58447 3.41783 4.83333 4.33335 4.83333C5.24888 4.83333 6.00002 5.58447 6.00002 6.49999C6.00002 7.41552 5.24888 8.16666 4.33335 8.16666ZM4.33335 4.91666C3.46138 4.91666 2.75002 5.62802 2.75002 6.49999C2.75002 7.37197 3.46138 8.08333 4.33335 8.08333C5.20533 8.08333 5.91669 7.37197 5.91669 6.49999C5.91669 5.62802 5.20533 4.91666 4.33335 4.91666ZM4.33335 14.6667C3.41783 14.6667 2.66669 13.9155 2.66669 13C2.66669 12.0845 3.41783 11.3333 4.33335 11.3333C5.24888 11.3333 6.00002 12.0845 6.00002 13C6.00002 13.9155 5.24888 14.6667 4.33335 14.6667ZM4.33335 11.4167C3.46138 11.4167 2.75002 12.128 2.75002 13C2.75002 13.872 3.46138 14.5833 4.33335 14.5833C5.20533 14.5833 5.91669 13.872 5.91669 13C5.91669 12.128 5.20533 11.4167 4.33335 11.4167ZM4.33335 21.1667C3.41783 21.1667 2.66669 20.4155 2.66669 19.5C2.66669 18.5845 3.41783 17.8333 4.33335 17.8333C5.24888 17.8333 6.00002 18.5845 6.00002 19.5C6.00002 20.4155 5.24888 21.1667 4.33335 21.1667ZM4.33335 17.9167C3.46138 17.9167 2.75002 18.628 2.75002 19.5C2.75002 20.372 3.46138 21.0833 4.33335 21.0833C5.20533 21.0833 5.91669 20.372 5.91669 19.5C5.91669 18.628 5.20533 17.9167 4.33335 17.9167ZM8.08335 6.45833H23.3334V6.54166H8.08335V6.45833ZM8.08335 12.9583H23.3334V13.0417H8.08335V12.9583ZM8.08335 19.4583H23.3334V19.5417H8.08335V19.4583Z" stroke="black"/>
</svg>
