<svg width="32" height="32" viewBox="0 0 32 32" fill="none" xmlns="http://www.w3.org/2000/svg">
<g clip-path="url(#clip0)">
<path d="M5.00196 21.205C4.55796 20.761 4.55796 20.062 5.00196 19.618C5.43096 19.189 6.14496 19.189 6.57296 19.618L14.62 27.665L14.62 1.11C14.62 0.491002 15.112 -0.000998566 15.731 -0.000998512C16.35 -0.000998458 16.858 0.491002 16.858 1.11L16.858 27.666L24.889 19.619C25.333 19.19 26.048 19.19 26.476 19.619C26.92 20.063 26.92 20.762 26.476 21.206L16.524 31.158C16.095 31.587 15.381 31.587 14.953 31.158L5.00196 21.205Z" fill="#1E201D"/>
</g>
<defs>
<clipPath id="clip0">
<rect width="31.479" height="31.479" fill="white" transform="translate(31.479 31.479) rotate(-180)"/>
</clipPath>
</defs>
</svg>
