<svg width="26" height="26" viewBox="0 0 26 26" fill="none" xmlns="http://www.w3.org/2000/svg">
<path d="M23.4 23.4H17.55V22.1H23.4V23.4ZM22.75 24.7H18.2V26H22.75V24.7ZM23.4 20.2475C23.4 20.1338 23.595 19.9713 23.7087 19.8738L23.7738 19.8087C23.8225 19.76 23.8712 19.7275 23.92 19.6788C24.0662 19.5487 24.2125 19.4187 24.375 19.2562C26.52 17.0787 26.52 13.5525 24.375 11.375C23.335 10.3187 21.9375 9.73375 20.4587 9.73375C18.98 9.73375 17.5987 10.3187 16.5425 11.375C14.3975 13.5525 14.3975 17.0787 16.5425 19.2562C16.705 19.4187 16.8512 19.5487 16.9975 19.6788C17.0462 19.7275 17.095 19.76 17.1437 19.8087L17.2087 19.8575C17.3225 19.955 17.5175 20.1175 17.5175 20.2312V20.7837H18.8175V20.2312C18.8175 19.5162 18.2975 19.0775 18.0537 18.8663L18.005 18.8175C17.9562 18.7687 17.8913 18.72 17.8425 18.6712C17.6962 18.5575 17.5825 18.4438 17.4525 18.33C15.795 16.6562 15.795 13.9425 17.4525 12.285C18.2487 11.4725 19.305 11.0337 20.4425 11.0337C21.58 11.0337 22.6362 11.4725 23.4325 12.285C25.09 13.9587 25.09 16.6725 23.4325 18.33C23.3025 18.46 23.1887 18.5575 23.0425 18.6712C22.9937 18.72 22.9287 18.7687 22.88 18.8175L22.8312 18.8663C22.5875 19.0775 22.0675 19.5162 22.0675 20.2312V20.7837H23.3675V20.2475H23.4ZM1.3 1.3H5.2V0H0V5.2H1.3V1.3ZM26 0H20.8V1.3H24.7V5.2H26V0ZM5.2 24.7H1.3V20.8H0V26H5.2V24.7ZM4.55 16.9H6.5V6.5H4.55V16.9ZM3.25 6.5H1.95V19.5H3.25V6.5ZM9.1 6.5H7.8V16.9H9.1V6.5ZM10.4 16.9H12.35V6.5H10.4V16.9ZM9.1 18.2H7.8V19.5H9.1V18.2ZM4.55 19.5H6.5V18.2H4.55V19.5ZM10.4 19.5H12.35V18.2H10.4V19.5ZM15.6 10.5137V6.5H14.3V12.415C14.625 11.7162 15.0475 11.0825 15.6 10.5137ZM18.2 6.5H16.9V9.4575C17.3062 9.1975 17.745 8.98625 18.2 8.84V6.5ZM20.8 8.46625V6.5H19.5V8.515C19.825 8.46625 20.15 8.45 20.475 8.45C20.5887 8.45 20.6862 8.45 20.8 8.46625ZM24.1962 6.5H22.1V8.645C22.8475 8.82375 23.5625 9.1325 24.1962 9.555V6.5Z" fill="black"/>
</svg>
