<svg width="32" height="32" viewBox="0 0 32 32" fill="none" xmlns="http://www.w3.org/2000/svg">
<g clip-path="url(#clip0)">
<path d="M26.4759 10.2738C26.9199 10.7178 26.9199 11.4167 26.4759 11.8608C26.0469 12.2898 25.3329 12.2898 24.9049 11.8608L16.8579 3.81375V30.3687C16.8579 30.9877 16.3659 31.4797 15.7469 31.4797C15.1279 31.4797 14.6199 30.9877 14.6199 30.3687V3.81275L6.58895 11.8597C6.14495 12.2887 5.42995 12.2887 5.00195 11.8597C4.55795 11.4157 4.55795 10.7168 5.00195 10.2727L14.9539 0.320751C15.3829 -0.108249 16.0969 -0.108249 16.5249 0.320751L26.4759 10.2738Z" fill="#1E201D"/>
</g>
<defs>
<clipPath id="clip0">
<rect width="31.479" height="31.479" fill="white" transform="translate(31.479 31.479) rotate(180)"/>
</clipPath>
</defs>
</svg>
