<svg width="75" height="24" viewBox="0 0 75 24" fill="none" xmlns="http://www.w3.org/2000/svg">
<path d="M5.42969 18.1406C3.15365 18.1406 1.71354 17.2839 1.10938 15.5703L2.29688 15.0859C2.53125 15.8359 2.9401 16.362 3.52344 16.6641C3.9974 16.9141 4.63281 17.0391 5.42969 17.0391C6.32552 17.0391 7.01823 16.8177 7.50781 16.375C7.9349 15.9948 8.14844 15.4922 8.14844 14.8672C8.14844 14.2943 7.96094 13.8464 7.58594 13.5234C7.36719 13.3307 7.09375 13.1745 6.76562 13.0547C6.4375 12.9297 5.86458 12.7656 5.04688 12.5625C3.84896 12.2708 2.98958 11.9297 2.46875 11.5391C1.82812 11.0651 1.50781 10.3724 1.50781 9.46094C1.50781 8.46094 1.875 7.6875 2.60938 7.14062C3.25 6.66146 4.08854 6.42188 5.125 6.42188C6.18229 6.42188 7.01302 6.59115 7.61719 6.92969C8.19531 7.2526 8.64583 7.76562 8.96875 8.46875L7.875 9.02344C7.59375 8.39844 7.21615 7.98177 6.74219 7.77344C6.3776 7.60677 5.84375 7.52344 5.14062 7.52344C4.35938 7.52344 3.76302 7.70833 3.35156 8.07812C2.98698 8.40104 2.80469 8.82812 2.80469 9.35938C2.80469 9.97917 3.0651 10.4427 3.58594 10.75C3.95573 10.9635 4.61719 11.1771 5.57031 11.3906C6.88802 11.6823 7.82812 12.0495 8.39062 12.4922C9.09375 13.0703 9.44531 13.849 9.44531 14.8281C9.44531 15.9062 9.03385 16.7474 8.21094 17.3516C7.4974 17.8776 6.57031 18.1406 5.42969 18.1406ZM15.75 18.1406C14.3594 18.1406 13.2917 17.6927 12.5469 16.7969C11.9219 16.0365 11.6094 15.0495 11.6094 13.8359C11.6094 12.4609 12.0078 11.3672 12.8047 10.5547C13.4974 9.84635 14.3672 9.49219 15.4141 9.49219C16.6068 9.49219 17.5234 9.91146 18.1641 10.75C18.7214 11.4792 19 12.4453 19 13.6484V14.0781H12.9844C13 14.6615 13.0755 15.1406 13.2109 15.5156C13.3516 15.8854 13.5703 16.2057 13.8672 16.4766C14.2839 16.8516 14.901 17.0391 15.7188 17.0391C16.2292 17.0391 16.6562 16.9505 17 16.7734C17.3438 16.5964 17.6641 16.3021 17.9609 15.8906L18.9375 16.6719C18.2552 17.651 17.1927 18.1406 15.75 18.1406ZM13.0312 13.0078H17.6406C17.5469 12.0964 17.3073 11.4557 16.9219 11.0859C16.5781 10.7578 16.0807 10.5938 15.4297 10.5938C14.1328 10.5938 13.3333 11.3984 13.0312 13.0078ZM21.5469 9.63281H22.875V10.9141C23.3906 9.96615 24.2396 9.49219 25.4219 9.49219C26.375 9.49219 27.0885 9.8151 27.5625 10.4609C27.9792 11.0234 28.1875 11.8073 28.1875 12.8125V18H26.8594V12.7188C26.8594 11.9531 26.6979 11.4062 26.375 11.0781C26.0885 10.7865 25.6589 10.6406 25.0859 10.6406C24.3672 10.6406 23.8047 10.8698 23.3984 11.3281C23.0495 11.7292 22.875 12.2474 22.875 12.8828V18H21.5469V9.63281ZM37.0391 16.6562C36.4036 17.6458 35.4818 18.1406 34.2734 18.1406C33.1068 18.1406 32.1953 17.6927 31.5391 16.7969C30.9714 16.0156 30.6875 15.0078 30.6875 13.7734C30.6875 12.3932 31.0573 11.3073 31.7969 10.5156C32.4375 9.83333 33.2578 9.49219 34.2578 9.49219C35.4609 9.49219 36.388 9.9974 37.0391 11.0078V5.95312H38.3672V18H37.0391V16.6562ZM34.5078 10.5938C33.6745 10.5938 33.0443 10.9167 32.6172 11.5625C32.2474 12.1198 32.0625 12.8854 32.0625 13.8594C32.0625 15.9792 32.862 17.0391 34.4609 17.0391C35.3568 17.0391 36.0339 16.7214 36.4922 16.0859C36.888 15.5339 37.0859 14.7786 37.0859 13.8203C37.0859 12.7526 36.8255 11.9297 36.3047 11.3516C35.8516 10.8464 35.2526 10.5938 34.5078 10.5938Z" fill="#005691"/>
<path d="M64.625 20.05L60.65 14.375L54.9 10.925L70.9 4.0625L64.625 20.05ZM61.65 14.0625L64.375 17.95L68.6625 7.05L61.65 14.0625ZM57.1 11.075L60.925 13.375L67.8125 6.4875L57.1 11.075Z" fill="#005691"/>
</svg>
