<svg width="40" height="40" viewBox="0 0 40 40" fill="none" xmlns="http://www.w3.org/2000/svg">
<path d="M24.5443 11.547H23.9258V7.83039C23.9258 6.3107 22.6887 5.07895 21.1743 5.07895H20.6038L20.6091 3.6979C20.6091 2.67411 19.7773 1.84229 18.7535 1.84229H2.25554C1.02379 1.84229 0.0159967 2.83408 0 4.06583C0 4.07649 0 4.08716 0 4.09782V22.3021C0 23.3259 0.831829 24.1577 1.85562 24.1577H21.1797C22.6993 24.1577 23.9311 22.9206 23.9311 21.4063V17.6844H24.5496C25.3495 17.6844 26 17.0338 26 16.234V12.9973C25.9947 12.1975 25.3441 11.547 24.5443 11.547ZM2.25554 3.12202H18.7535C19.0681 3.12202 19.3294 3.37797 19.3294 3.69257L19.324 5.07895H2.25554C1.71698 5.07895 1.27974 4.64171 1.27974 4.10315C1.27974 3.5646 1.71698 3.12202 2.25554 3.12202ZM22.646 21.4009C22.646 22.2114 21.9848 22.8726 21.1743 22.8726H1.85029C1.53568 22.8726 1.27441 22.6167 1.27441 22.2967V6.13473C1.57301 6.27871 1.90361 6.35869 2.25554 6.35869H21.1743C21.9848 6.35869 22.646 7.01989 22.646 7.83039V11.547H18.2789C17.4791 11.547 16.8285 12.1975 16.8285 12.9973V16.234C16.8285 17.0338 17.4791 17.6844 18.2789 17.6844H22.646V21.4009ZM24.7149 16.234C24.7149 16.33 24.6403 16.4046 24.5443 16.4046H18.2842C18.1883 16.4046 18.1136 16.33 18.1136 16.234V12.9973C18.1136 12.9067 18.1883 12.8267 18.2842 12.8267H24.5443C24.6349 12.8267 24.7149 12.9013 24.7149 12.9973V16.234Z" fill="black"/>
</svg>
