<svg xmlns="http://www.w3.org/2000/svg" viewBox="0 0 124.68 124.68"><defs><style>.cls-1,.cls-3{fill:none;stroke:#808a88;stroke-miterlimit:10;}.cls-1{stroke-width:6px;}.cls-2{fill:#808a88;}.cls-3{stroke-width:3px;}</style></defs><title>appschat</title><g id="Слой_2" data-name="Слой 2"><g id="Слой_1-2" data-name="Слой 1"><rect class="cls-1" x="3" y="3" width="118.68" height="118.68" rx="14.58" ry="14.58"/><path class="cls-2" d="M63.09,21.67H99.43c3.22,0,3.22-5,0-5H63.09c-3.22,0-3.22,5,0,5Z"/><path class="cls-2" d="M63.09,37.09H99.43a1.5,1.5,0,0,0,0-3H63.09a1.5,1.5,0,0,0,0,3Z"/><path class="cls-2" d="M63.09,57.13H99.43c3.22,0,3.22-5,0-5H63.09c-3.22,0-3.22,5,0,5Z"/><path class="cls-2" d="M63.09,72.55H99.43a1.5,1.5,0,0,0,0-3H63.09a1.5,1.5,0,0,0,0,3Z"/><path class="cls-2" d="M63.09,91.89H99.43c3.22,0,3.22-5,0-5H63.09c-3.22,0-3.22,5,0,5Z"/><path class="cls-2" d="M63.09,107.32H99.43a1.5,1.5,0,0,0,0-3H63.09a1.5,1.5,0,0,0,0,3Z"/><rect class="cls-3" x="25.25" y="15.43" width="22.54" height="22.54" rx="7.04" ry="7.04"/><rect class="cls-3" x="25.25" y="51.07" width="22.54" height="22.54" rx="7.04" ry="7.04"/><rect class="cls-3" x="25.25" y="86.7" width="22.54" height="22.54" rx="7.04" ry="7.04"/></g></g></svg>