<svg width="120" height="120" viewBox="0 0 120 120" fill="none" xmlns="http://www.w3.org/2000/svg">
<path d="M77.2271 20.9871H21.4418C16.2073 20.9871 11.9558 25.2386 11.9558 30.4731V110.514C11.9558 115.749 16.2073 120 21.4418 120H77.2271C82.4616 120 86.7131 115.749 86.7131 110.514V30.4731C86.6885 25.2386 82.437 20.9871 77.2271 20.9871ZM80.0533 110.489C80.0533 112.062 78.7754 113.34 77.2026 113.34H21.4172C19.8444 113.34 18.5665 112.062 18.5665 110.489V30.4731C18.5665 28.9003 19.8444 27.6224 21.4172 27.6224H77.2026C78.7754 27.6224 80.0533 28.9003 80.0533 30.4731V110.489Z" fill="#005691"/>
<path d="M98.5583 0H42.7729C37.5384 0 33.2869 4.25148 33.2869 9.48597C33.2869 11.3291 34.7614 12.8036 36.6046 12.8036C38.4477 12.8036 39.9222 11.3291 39.9222 9.48597C39.9222 7.91317 41.2001 6.63527 42.7729 6.63527H98.5583C100.131 6.63527 101.409 7.91317 101.409 9.48597V89.5269C101.409 91.0997 100.131 92.3776 98.5583 92.3776C96.7151 92.3776 95.2406 93.8521 95.2406 95.6953C95.2406 97.5384 96.7151 99.0129 98.5583 99.0129C103.793 99.0129 108.044 94.7614 108.044 89.5269V9.48597C108.044 4.25148 103.793 0 98.5583 0Z" fill="#005691"/>
</svg>
