<svg xmlns="http://www.w3.org/2000/svg" viewBox="0 0 99.01 123.65"><defs><style>.cls-1{fill:#b3bfbd;}</style></defs><title>copy_1</title><g id="Слой_2" data-name="Слой 2"><g id="Слой_1-2" data-name="Слой 1"><path class="cls-1" d="M67.26,21.63H9.77A9.78,9.78,0,0,0,0,31.4v82.48a9.78,9.78,0,0,0,9.77,9.77H67.26A9.78,9.78,0,0,0,77,113.88V31.4A9.81,9.81,0,0,0,67.26,21.63Zm2.91,92.22a2.94,2.94,0,0,1-2.94,2.94H9.75a2.94,2.94,0,0,1-2.94-2.94V31.4a2.94,2.94,0,0,1,2.94-2.94H67.23a2.94,2.94,0,0,1,2.94,2.94Z"/><path class="cls-1" d="M89.24,0H31.75A9.78,9.78,0,0,0,22,9.77a3.42,3.42,0,1,0,6.84,0,2.94,2.94,0,0,1,2.94-2.94H89.24a2.94,2.94,0,0,1,2.94,2.94V92.25a2.94,2.94,0,0,1-2.94,2.94,3.42,3.42,0,0,0,0,6.84A9.78,9.78,0,0,0,99,92.25V9.77A9.78,9.78,0,0,0,89.24,0Z"/></g></g></svg>