<svg xmlns="http://www.w3.org/2000/svg" viewBox="0 0 141 141"><defs><style>.cls-1{fill:none;stroke:#b3bfbd;stroke-miterlimit:10;stroke-width:6px;}.cls-2{fill:#b3bfbd;}</style></defs><title>Ресурс 36</title><g id="Слой_2" data-name="Слой 2"><g id="Слой_1-2" data-name="Слой 1"><circle class="cls-1" cx="70.5" cy="70.5" r="67.5"/><path class="cls-2" d="M77.73,73.56a1.5,1.5,0,0,1-1.49-1.49V57.12a1.5,1.5,0,0,1,1.49-1.49h26.91a1.5,1.5,0,0,1,1.49,1.49V72.07a1.5,1.5,0,0,1-1.49,1.49h-7l-.19-1.94a4.47,4.47,0,0,0-4.46-4H89.4a4.47,4.47,0,0,0-4.46,4l-.2,1.94Z"/><path class="cls-2" d="M95.51,82.53H86.85l1.06-10.61a1.49,1.49,0,0,1,1.49-1.35H93a1.49,1.49,0,0,1,1.49,1.35Z"/><path class="cls-2" d="M35.88,73.56a1.5,1.5,0,0,1-1.49-1.49V57.12a1.5,1.5,0,0,1,1.49-1.49H62.78a1.5,1.5,0,0,1,1.49,1.49V72.07a1.5,1.5,0,0,1-1.49,1.49h-7l-.19-1.94a4.47,4.47,0,0,0-4.46-4H47.55a4.47,4.47,0,0,0-4.46,4l-.2,1.94Z"/><path class="cls-2" d="M53.66,82.53H45l1.06-10.61a1.49,1.49,0,0,1,1.49-1.35h3.56a1.49,1.49,0,0,1,1.49,1.35Z"/><rect class="cls-2" x="107.63" y="91.39" width="5.2" height="32.88"/><rect class="cls-2" x="26.91" y="85.52" width="86.7" height="5.98" rx="1.49" ry="1.49"/><rect class="cls-2" x="27.79" y="91.39" width="5.2" height="32.88"/></g></g></svg>