<svg xmlns="http://www.w3.org/2000/svg" viewBox="0 0 141 141"><defs><style>.cls-1{fill:#b3bfbd;}.cls-2{fill:none;stroke:#b3bfbd;stroke-miterlimit:10;stroke-width:6px;}</style></defs><title>home</title><g id="Слой_2" data-name="Слой 2"><g id="Слой_1-2" data-name="Слой 1"><path class="cls-1" d="M118.85,65.91,72.49,24.46a1.3,1.3,0,0,0-.26-.2,2.74,2.74,0,0,0-3.71-.06L22.16,65.65a2.74,2.74,0,0,0,3.65,4.09l8.35-7.48v48.35A6.9,6.9,0,0,0,41,117.5H55.67A6.47,6.47,0,0,0,62.13,111V86.46a1,1,0,0,1,1-1H77.9a1,1,0,0,1,1,1V111a6.47,6.47,0,0,0,6.46,6.46H100c3.85,0,6.89-3.79,6.89-8.63V62.53L115.22,70a2.76,2.76,0,0,0,3.87-.22A2.79,2.79,0,0,0,118.85,65.91ZM101.38,79.43v29.4c0,2-1,3.16-1.42,3.16H85.33a1,1,0,0,1-1-1V86.46A6.47,6.47,0,0,0,77.88,80H63.11a6.47,6.47,0,0,0-6.46,6.46V111a1,1,0,0,1-1,1H41a1.42,1.42,0,0,1-1.42-1.42V57.36L70.36,29.89l31,27.74v21.8Z"/><circle class="cls-2" cx="70.5" cy="70.5" r="67.5"/></g></g></svg>