<svg xmlns="http://www.w3.org/2000/svg" viewBox="0 0 246.73 247"><defs><style>.cls-1{fill:#c8d5d3;}</style></defs><title>Ресурс 45</title><g id="Слой_2" data-name="Слой 2"><g id="Слой_1-2" data-name="Слой 1"><path class="cls-1" d="M55.15,247a55.78,55.78,0,0,1-38.6-15.42c-22.81-21.75-21.54-59.5.75-81.79l26.54-26.55A56.06,56.06,0,0,1,89,107.18a7.85,7.85,0,0,1,6.59,9.9l-.06.23a7.88,7.88,0,0,1-8.43,5.74,40,40,0,0,0-32,11.49l-27,27C13.41,176.3,11,200.26,24.2,216.37a40,40,0,0,0,59.22,3l28.26-28.27a39.4,39.4,0,0,0,11.67-28.22c0-1.22,0-2.41-.15-3.57a8.05,8.05,0,0,1,5.71-8.62l.19-.06a7.83,7.83,0,0,1,10,6.55q.28,2.79.28,5.66A55.29,55.29,0,0,1,123,202.37L94.72,230.64A55.78,55.78,0,0,1,55.15,247Z"/><path class="cls-1" d="M162.54,139.6q-2.75,0-5.51-.27a8,8,0,0,1,1.87-15.88,40,40,0,0,0,31.9-11.51l28.27-28.26a40.06,40.06,0,0,0,0-56.54c-15.56-15.55-42.18-14.31-57.73,1.23l-27,27a40,40,0,0,0-11.51,31.9,8,8,0,0,1-15.87,1.86A56,56,0,0,1,123,44.12l26.73-26.73c21.85-21.85,57.79-23.69,80-2.19a55.34,55.34,0,0,1,17,40.26A55.26,55.26,0,0,1,230.37,95l-28.26,28.27A56.06,56.06,0,0,1,162.54,139.6Z"/><path class="cls-1" d="M75,171.21a8,8,0,0,1,0-11.3l84.62-84.62a8,8,0,0,1,11.3,11.3L86.31,171.21A8,8,0,0,1,75,171.21Z"/></g></g></svg>