<svg xmlns="http://www.w3.org/2000/svg" viewBox="0 0 512 512"><defs><style>.cls-1{fill:#f90606;}</style></defs><title>unverified</title><g id="Слой_2" data-name="Слой 2"><g id="Capa_1" data-name="Capa 1"><path class="cls-1" d="M437,75A256,256,0,0,0,75,75,256,256,0,0,0,256,512,256,256,0,0,0,437,75ZM416.43,416.43a226.82,226.82,0,0,1-320.86,0C7.11,328,7.11,184,95.57,95.57a226.82,226.82,0,0,1,320.86,0C504.89,184,504.89,328,416.43,416.43Z"/><path class="cls-1" d="M368.81,143.19a14.5,14.5,0,0,0-20.58,0L256,235.42l-92.23-92.23a14.55,14.55,0,0,0-20.58,20.58L235.42,256l-92.23,92.23a14.6,14.6,0,0,0,10.24,24.89,14.18,14.18,0,0,0,10.23-4.31l92.23-92.23,92.23,92.23a14.64,14.64,0,0,0,10.24,4.31,14,14,0,0,0,10.23-4.31,14.5,14.5,0,0,0,0-20.58l-92-92.23,92.23-92.23A14.5,14.5,0,0,0,368.81,143.19Z"/></g></g></svg>